ModelForces
version=1
nRows=4
nColumns=155
inDegrees=no

This file contains the forces exerted on a model during a simulation.

A force is a generalized force, meaning that it can be either a force (N) or a torque (Nm).

Units are S.I. units (second, meters, Newtons, ...)
Angles are in degrees.

endheader
time	glut_med1_r	glut_med2_r	glut_med3_r	glut_min1_r	glut_min2_r	glut_min3_r	semimem_r	semiten_r	bifemlh_r	bifemsh_r	sar_r	add_long_r	add_brev_r	add_mag1_r	add_mag2_r	add_mag3_r	tfl_r	pect_r	grac_r	glut_max1_r	glut_max2_r	glut_max3_r	iliacus_r	psoas_r	quad_fem_r	gem_r	peri_r	rect_fem_r	vas_med_r	vas_int_r	vas_lat_r	med_gas_r	lat_gas_r	soleus_r	tib_post_r	flex_dig_r	flex_hal_r	tib_ant_r	per_brev_r	per_long_r	per_tert_r	ext_dig_r	ext_hal_r	glut_med1_l	glut_med2_l	glut_med3_l	glut_min1_l	glut_min2_l	glut_min3_l	semimem_l	semiten_l	bifemlh_l	bifemsh_l	sar_l	add_long_l	add_brev_l	add_mag1_l	add_mag2_l	add_mag3_l	tfl_l	pect_l	grac_l	glut_max1_l	glut_max2_l	glut_max3_l	iliacus_l	psoas_l	quad_fem_l	gem_l	peri_l	rect_fem_l	vas_med_l	vas_int_l	vas_lat_l	med_gas_l	lat_gas_l	soleus_l	tib_post_l	flex_dig_l	flex_hal_l	tib_ant_l	per_brev_l	per_long_l	per_tert_l	ext_dig_l	ext_hal_l	ercspn_r	ercspn_l	intobl_r	intobl_l	extobl_r	extobl_l	femur_lat_meniscii_r.femur_lat_r.force.X	femur_lat_meniscii_r.femur_lat_r.force.Y	femur_lat_meniscii_r.femur_lat_r.force.Z	femur_lat_meniscii_r.femur_lat_r.torque.X	femur_lat_meniscii_r.femur_lat_r.torque.Y	femur_lat_meniscii_r.femur_lat_r.torque.Z	femur_lat_meniscii_r.meniscus_lat_r.force.X	femur_lat_meniscii_r.meniscus_lat_r.force.Y	femur_lat_meniscii_r.meniscus_lat_r.force.Z	femur_lat_meniscii_r.meniscus_lat_r.torque.X	femur_lat_meniscii_r.meniscus_lat_r.torque.Y	femur_lat_meniscii_r.meniscus_lat_r.torque.Z	femur_med_meniscii_r.femur_med_r.force.X	femur_med_meniscii_r.femur_med_r.force.Y	femur_med_meniscii_r.femur_med_r.force.Z	femur_med_meniscii_r.femur_med_r.torque.X	femur_med_meniscii_r.femur_med_r.torque.Y	femur_med_meniscii_r.femur_med_r.torque.Z	femur_med_meniscii_r.meniscus_med_r.force.X	femur_med_meniscii_r.meniscus_med_r.force.Y	femur_med_meniscii_r.meniscus_med_r.force.Z	femur_med_meniscii_r.meniscus_med_r.torque.X	femur_med_meniscii_r.meniscus_med_r.torque.Y	femur_med_meniscii_r.meniscus_med_r.torque.Z	femur_med_tibia_r.tibia_upper_r.force.X	femur_med_tibia_r.tibia_upper_r.force.Y	femur_med_tibia_r.tibia_upper_r.force.Z	femur_med_tibia_r.tibia_upper_r.torque.X	femur_med_tibia_r.tibia_upper_r.torque.Y	femur_med_tibia_r.tibia_upper_r.torque.Z	femur_med_tibia_r.femur_med_r.force.X	femur_med_tibia_r.femur_med_r.force.Y	femur_med_tibia_r.femur_med_r.force.Z	femur_med_tibia_r.femur_med_r.torque.X	femur_med_tibia_r.femur_med_r.torque.Y	femur_med_tibia_r.femur_med_r.torque.Z	femur_lat_tibia_r.tibia_upper_r.force.X	femur_lat_tibia_r.tibia_upper_r.force.Y	femur_lat_tibia_r.tibia_upper_r.force.Z	femur_lat_tibia_r.tibia_upper_r.torque.X	femur_lat_tibia_r.tibia_upper_r.torque.Y	femur_lat_tibia_r.tibia_upper_r.torque.Z	femur_lat_tibia_r.femur_lat_r.force.X	femur_lat_tibia_r.femur_lat_r.force.Y	femur_lat_tibia_r.femur_lat_r.force.Z	femur_lat_tibia_r.femur_lat_r.torque.X	femur_lat_tibia_r.femur_lat_r.torque.Y	femur_lat_tibia_r.femur_lat_r.torque.Z	aACL_R	pACL_R	aPCL_R	pPCL_R	aMCL_R	mMCL_R	pMCL_R	aLCL_R	mLCL_R	pLCL_R	aPCL_L	pPCL_L	aMCL_L	aLCL_L
      0.20974392	      9.70875306	      7.14590624	      7.67122773	      3.32073052	      3.89742842	      4.10476639	      0.00000000	    163.73662535	    182.24890248	    339.05853362	    122.26210692	      7.09911659	      5.16118570	      3.67581727	      3.10719668	      5.16967319	      3.33312618	      2.80003776	     92.59161523	      4.61182492	      7.01309078	      5.25684347	     25.34375340	     16.01893852	      4.55148605	      3.29352497	      5.56928356	    114.19254551	     40.42119929	     82.56749442	     55.73794984	      0.00000000	      0.00000000	      0.00000000	      0.00000000	      0.00000000	      0.00000000	     35.74544604	      1.29628832	      3.02934848	     22.90085901	     48.80327731	     11.80126456	      9.70875306	      7.14590624	      7.67122773	      3.32073052	      3.89742842	      4.10476639	     10.58948550	      5.24062061	     10.25511022	      9.05770593	      1.89605009	      7.09911659	      5.16118570	      3.67581727	      3.10719668	      5.16967319	      4.82911858	      2.80003776	      1.95222198	      4.61182492	      7.01309078	      5.25684347	     25.34375340	     16.01893852	      4.55148605	      3.29352497	      5.56928356	     14.19285992	      0.00000000	      0.00000000	      0.00000000	     19.32181759	      9.02597526	     42.95545722	     47.26425809	      4.17235940	      3.63347706	     11.12120373	      5.88434269	     15.82264314	      2.47789785	      7.86782012	      2.52007594	     31.24646708	     31.24646708	     11.46739680	     11.46739680	     29.02398169	     29.02398169	    121.63564043	     94.79561369	     17.37240995	     -9.17025681	      2.91731693	     48.01963162	   -121.63564043	    -94.79561369	    -17.37240995	      2.56986524	     -3.71138499	      2.52701264	      0.02595043	      0.00152695	     -0.01650822	      0.00658128	     -0.00040539	      0.01030785	     -0.02595043	     -0.00152695	      0.01650822	     -0.00006625	      0.00078456	     -0.00003135	   -863.98704354	   -380.58061760	    300.29976409	     -8.16855663	     20.90928423	      3.18239911	    863.98704354	    380.58061760	   -300.29976409	    127.61870188	    -15.05141458	    347.90935020	   -293.03952367	   -141.22772027	    -86.45988977	      4.59777863	    -10.39620380	      1.40304734	    293.03952367	    141.22772027	     86.45988977	    -38.32369036	      7.27263405	    118.00677114	     -2.48526282	      0.00000000	    976.11523993	    635.95692856	     32.42589006	     20.31052189	      0.00000000	      0.00000000	      0.00000000	      0.00000000	      0.00000000	      0.00000000	      0.00000001	      0.00000000
      0.20996007	      9.70263834	      7.14172816	      7.66668701	      3.31887068	      3.89540235	      4.10218140	      0.00000000	    163.57253002	    181.96822189	    337.64649109	    122.10478223	      7.09491692	      5.15832195	      3.67368362	      3.10534701	      5.16631905	      3.33914641	      2.79845874	     92.45011006	      4.60912291	      7.00897107	      5.25370285	     25.33610747	     16.01024232	      4.54888075	      3.29227144	      5.56592663	    114.54674084	     40.14223553	     76.38278116	     55.52648274	      0.00000000	      0.00000000	      0.00000000	      0.00000000	      0.00000000	      0.00000000	     35.76348196	      1.27857060	      3.00388770	     22.84606255	     48.71384479	     11.77543803	      9.70263834	      7.14172816	      7.66668701	      3.31887068	      3.89540235	      4.10218140	     10.59291264	      5.23733993	     10.24799888	      9.05251641	      1.89499313	      7.09491692	      5.15832195	      3.67368362	      3.10534701	      5.16631905	      4.82704274	      2.79845874	      1.95111447	      4.60912291	      7.00897107	      5.25370285	     25.33610747	     16.01024232	      4.54888075	      3.29227144	      5.56592663	     14.18297497	      0.00000000	      0.00000000	      0.00000000	     19.31149288	      9.02085867	     42.92487851	     47.25086771	      4.16591231	      3.62773673	     11.11370131	      5.88007677	     15.81385532	      2.47655597	      7.86477704	      2.51917486	     31.22892695	     31.22892695	     11.46041109	     11.46041109	     29.01768380	     29.01768380	    127.61212434	     94.33956738	     14.46747333	     -7.97184863	      3.02924419	     50.44182726	   -127.61212434	    -94.33956738	    -14.46747333	      2.51570208	     -3.76097199	      2.45623711	      0.02076001	     -0.00022104	     -0.01309516	      0.00520596	     -0.00032325	      0.00825837	     -0.02076001	      0.00022104	      0.01309516	     -0.00004119	      0.00062372	     -0.00007564	   -853.29345235	   -371.08873075	    298.63236474	     -8.01718174	     20.72498609	      3.02591309	    853.29345235	    371.08873075	   -298.63236474	    126.79728774	    -14.88139083	    343.63034820	   -290.38875173	   -137.86761110	    -84.33795142	      4.48214895	    -10.25101647	      1.33173045	    290.38875173	    137.86761110	     84.33795142	    -37.38293030	      7.18970484	    116.95514255	     -2.09228536	      0.00000000	    977.19620363	    633.99413996	     30.67057024	     18.27874857	      0.00000000	      0.00000000	      0.00000000	      0.00000000	      0.00000000	      0.00000000	      0.00000001	      0.00000000
      0.21040000	      9.69024620	      7.13326111	      7.65748513	      3.31510151	      3.89129639	      4.09694291	      0.00000000	    163.42218644	    181.58027628	    336.00816799	    121.93175251	      7.08640617	      5.15251818	      3.66935928	      3.10159865	      5.15952190	      3.34763256	      2.79525870	     92.30013809	      4.60364724	      7.00062239	      5.24733838	     25.32061326	     15.99262020	      4.54360093	      3.28973130	      5.55910519	    115.41703273	     39.88053598	     75.16854781	     55.50221475	      0.00000000	      0.00000000	      0.00000000	      0.00000000	      0.00000000	      0.00000000	     35.78771961	      1.24482434	      2.95365728	     22.73454522	     48.52970892	     11.72233887	      9.69024620	      7.13326111	      7.65748513	      3.31510151	      3.89129639	      4.09694291	     10.59946875	      5.23069164	     10.23358331	      9.04199946	      1.89285107	      7.08640617	      5.15251818	      3.66935928	      3.10159865	      5.15952190	      4.82283603	      2.79525870	      1.94887000	      4.60364724	      7.00062239	      5.24733838	     25.32061326	     15.99262020	      4.54360093	      3.28973130	      5.55910519	     14.16294130	      0.00000000	      0.00000000	      0.00000000	     19.29048510	      9.01045347	     42.86285294	     47.22372341	      4.15283366	      3.61610660	     11.09849581	      5.87142984	     15.79603569	      2.47383672	      7.85857213	      2.51733199	     31.19337997	     31.19337997	     11.44625450	     11.44625450	     29.00492144	     29.00492144	    138.13296136	     96.95661310	     11.44778803	     -6.81108516	      3.23976747	     54.65836575	   -138.13296136	    -96.95661310	    -11.44778803	      2.55282686	     -3.91894207	      2.47549251	      0.00775011	     -0.00122880	     -0.00580479	      0.00229616	     -0.00012810	      0.00309283	     -0.00775011	      0.00122880	      0.00580479	     -0.00000928	      0.00026530	     -0.00006860	   -839.99041423	   -357.49560528	    299.49313455	     -7.82422412	     20.60584076	      2.81585006	    839.99041423	    357.49560528	   -299.49313455	    126.93484179	    -14.69896397	    338.30535704	   -286.35868012	   -133.48357163	    -80.82571429	      4.31628101	    -10.02068284	      1.26397440	    286.35868012	    133.48357163	     80.82571429	    -35.84881602	      7.06018860	    115.34238698	     -2.06273284	      0.00000000	    979.17507284	    630.36550349	     26.76876363	     14.00039383	      0.00000000	      0.00000000	      0.00000000	      0.00000000	      0.00000000	      0.00000000	      0.00000001	      0.00000000
      0.21119906	      9.66791999	      7.11800735	      7.64090783	      3.30831076	      3.88389924	      4.08750594	      0.00000000	    163.56432267	    181.32023507	    335.39327086	    121.86157956	      7.07107396	      5.14206163	      3.66156758	      3.09484607	      5.14727714	      3.35086433	      2.78949343	     92.29148036	      4.59378283	      6.98558228	      5.23587298	     25.29270177	     15.96087700	      4.53408883	      3.28515583	      5.54675400	     62.23284271	     40.04347258	     74.85330132	     55.94157940	      0.00000000	      0.00000000	      0.00000000	      0.00000000	      0.00000000	      0.00000000	     35.81206322	      1.18759038	      2.86394994	     22.53827801	     48.19128391	     11.62678899	      9.66791999	      7.11800735	      7.64090783	      3.30831076	      3.88389924	      4.08750594	     10.60999189	      5.21871504	     10.20759921	      9.02305228	      1.88899178	      7.07107396	      5.14206163	      3.66156758	      3.09484607	      5.14727714	      4.81525765	      2.78949343	      1.94482632	      4.59378283	      6.98558228	      5.23587298	     25.29270177	     15.96087700	      4.53408883	      3.28515583	      5.54675400	     14.12684508	      0.00000000	      0.00000000	      0.00000000	     19.25235415	      8.99158592	     42.75092141	     47.17479459	      4.12922873	      3.59516732	     11.07109747	      5.85584583	     15.76389675	      2.46893835	      7.84726319	      2.51395485	     31.12933681	     31.12933681	     11.42075176	     11.42075176	     28.98193146	     28.98193146	    151.66179062	    102.43230819	      9.21395884	     -6.04022577	      3.52335224	     60.04595646	   -151.66179062	   -102.43230819	     -9.21395884	      2.67824727	     -4.18112099	      2.60468702	      0.00040419	      0.00001977	     -0.00031153	      0.00012409	     -0.00000650	      0.00016058	     -0.00040419	     -0.00001977	      0.00031153	     -0.00000108	      0.00001391	     -0.00000051	   -841.91062938	   -346.41750370	    301.87648249	     -7.64206179	     20.70363313	      2.62195122	    841.91062938	    346.41750370	   -301.87648249	    127.71510526	    -14.72968811	    339.10804996	   -285.70518349	   -127.51607786	    -78.00135408	      4.11569880	     -9.90186994	      1.12259352	    285.70518349	    127.51607786	     78.00135408	    -34.55940606	      7.00926729	    115.11613618	     -3.53798457	      0.00000000	    983.33979891	    627.91352513	     20.80571945	      7.99402222	      0.00000000	      0.00000000	      0.00000000	      0.00000000	      0.00000000	      0.00000000	      0.00000001	      0.00000000
